<svg id="infraestructura" xmlns="http://www.w3.org/2000/svg" xmlns:xlink="http://www.w3.org/1999/xlink" width="80" height="80" viewBox="0 0 80 80">
  <defs>
    <clipPath id="clip-path">
      <rect id="Rectángulo_2310" data-name="Rectángulo 2310" width="80" height="80"/>
    </clipPath>
  </defs>
  <g id="infraestructura-2" data-name="infraestructura" clip-path="url(#clip-path)">
    <g id="Grupo_4185" data-name="Grupo 4185">
      <path id="Trazado_151" data-name="Trazado 151" d="M57.441,58.535a1.068,1.068,0,0,1-1.3-.2,1.057,1.057,0,0,1-.323-.767V49.84l-19.24,8.678a.97.97,0,0,1-.528.136,1.1,1.1,0,0,1-1.107-1.106V49.84L16.328,58.195l-.051.017v36.1H36.1v-14.3A1.1,1.1,0,0,1,37.208,78.9H55.789a1.141,1.141,0,0,1,1.124,1.107v14.31H76.686V49.84ZM29.122,71.83a.4.4,0,0,1-.4.4H22.458a.4.4,0,0,1-.4-.4V67.516a.4.4,0,0,1,.4-.4h6.261a.4.4,0,0,1,.4.4Zm20.893,0a.4.4,0,0,1-.4.4H43.351a.4.4,0,0,1-.4-.4V67.516a.4.4,0,0,1,.4-.4h6.261a.4.4,0,0,1,.4.4Zm20.828,0a.4.4,0,0,1-.4.4H64.178a.4.4,0,0,1-.4-.4V67.516a.4.4,0,0,1,.4-.4H70.44a.4.4,0,0,1,.4.4Z" transform="translate(-6.063 -31.859)" fill="#e3acb8"/>
      <g id="Grupo_4256" data-name="Grupo 4256">
        <g id="Grupo_4255" data-name="Grupo 4255">
          <path id="Trazado_152" data-name="Trazado 152" d="M50.736,64.88H41.874a1.11,1.11,0,0,0-1.124,1.108V73.34a1.123,1.123,0,0,0,1.124,1.124h8.862a1.51,1.51,0,0,0,1.51-1.51V66.391a1.515,1.515,0,0,0-1.51-1.511m-1.124,7.353H43.351a.4.4,0,0,1-.4-.4V67.515a.4.4,0,0,1,.4-.4h6.261a.4.4,0,0,1,.4.4V71.83a.4.4,0,0,1-.4.4" transform="translate(-6.063 -31.859)" fill="#d71920"/>
          <path id="Trazado_153" data-name="Trazado 153" d="M29.843,64.88H20.982a1.109,1.109,0,0,0-1.124,1.108V73.34a1.122,1.122,0,0,0,1.124,1.124h8.861a1.511,1.511,0,0,0,1.511-1.51V66.391a1.516,1.516,0,0,0-1.511-1.511m-1.124,7.353H22.458a.4.4,0,0,1-.4-.4V67.515a.4.4,0,0,1,.4-.4h6.261a.4.4,0,0,1,.4.4V71.83a.4.4,0,0,1-.4.4" transform="translate(-6.063 -31.859)" fill="#d71920"/>
          <path id="Trazado_154" data-name="Trazado 154" d="M71.564,64.88H62.7a1.109,1.109,0,0,0-1.124,1.108V73.34A1.122,1.122,0,0,0,62.7,74.464h8.861a1.51,1.51,0,0,0,1.51-1.51V66.391a1.515,1.515,0,0,0-1.51-1.511M70.44,72.233H64.179a.4.4,0,0,1-.4-.4V67.515a.4.4,0,0,1,.4-.4H70.44a.4.4,0,0,1,.4.4V71.83a.4.4,0,0,1-.4.4" transform="translate(-6.063 -31.859)" fill="#d71920"/>
        </g>
        <path id="Trazado_155" data-name="Trazado 155" d="M74.012,48.8l-12.33,4.847L58.088,55.64V47.966a1.131,1.131,0,0,0-1.124-1.107,1.232,1.232,0,0,0-.545.137L37.157,55.674V47.966A1.277,1.277,0,0,0,37,47.4l-.068-.119-.1-.1a1.091,1.091,0,0,0-.783-.324,1.291,1.291,0,0,0-.545.137l-20.88,9.6a1.065,1.065,0,0,0-.562.971v37.86a1.1,1.1,0,0,0,1.107,1.108H77.81a1.105,1.105,0,0,0,1.107-1.108V47.966a.989.989,0,0,0-.306-.766h-.017a1.07,1.07,0,0,0-.784-.341A.87.87,0,0,0,77.3,47ZM45.366,94.317H38.315V81.152h7.051Zm9.3,0H47.6V81.152h7.068Zm22.021,0H56.913V80.01a1.141,1.141,0,0,0-1.124-1.11H37.208A1.1,1.1,0,0,0,36.1,80.01V94.317H16.277v-36.1l.051-.017,18.615-8.356v7.708A1.105,1.105,0,0,0,36.05,58.66a.97.97,0,0,0,.528-.137l19.245-8.679v7.725a1.057,1.057,0,0,0,.323.767,1.068,1.068,0,0,0,1.3.2l19.245-8.7Z" transform="translate(-6.063 -31.859)" fill="#d71920"/>
      </g>
    </g>
  </g>
</svg>
