<svg id="logistica" xmlns="http://www.w3.org/2000/svg" xmlns:xlink="http://www.w3.org/1999/xlink" width="80" height="80" viewBox="0 0 80 80">
  <defs>
    <clipPath id="clip-path">
      <rect id="Rectángulo_2311" data-name="Rectángulo 2311" width="80" height="80"/>
    </clipPath>
  </defs>
  <g id="logistica-2" data-name="logistica" clip-path="url(#clip-path)">
    <g id="Grupo_4189" data-name="Grupo 4189">
      <path id="Trazado_149" data-name="Trazado 149" d="M444.526,78.676l-.219-.054-2.536-10.25.137-.11a3.986,3.986,0,0,0-2.758-6.87l-11.766-.01V56.771a3.982,3.982,0,0,0-3.963-3.985l-41.839-.036a4.174,4.174,0,0,0-1.546.3,4.021,4.021,0,0,0-2.439,3.677l-.033,37.242a4,4,0,0,0,3.979,4h5.472v.274a8.285,8.285,0,1,0,16.57.014v-.273l27.24.023v.274a8.291,8.291,0,1,0,16.582.015l-.014-.452.2-.068a3.982,3.982,0,0,0,2.658-3.747l.007-8.606a6.79,6.79,0,0,0-5.74-6.75M427.383,63.612l11.765.01a1.745,1.745,0,0,1,0,3.489L427.38,67.1Zm-.005,5.76,12.327.011,2.3,9.209-12.819-.011,2.8-2.581a1.134,1.134,0,0,0,.357-.834,1.1,1.1,0,0,0-.3-.767,1.127,1.127,0,0,0-1.6-.056l-3.067,2.83ZM395.3,104.3a6.034,6.034,0,1,1,6.026-6.042A6.034,6.034,0,0,1,395.3,104.3m29.807-8.567-21.932-.018-.054-.192A8.278,8.278,0,0,0,387.5,95.51l-.069.192-5.882-.006a1.742,1.742,0,0,1-1.723-1.725l.032-37.242a1.728,1.728,0,0,1,1.726-1.735l41.839.036a1.736,1.736,0,0,1,1.721,1.739Zm14,8.6a6.034,6.034,0,1,1,6.053-6.043,6.034,6.034,0,0,1-6.053,6.043m8.916-10.309a1.785,1.785,0,0,1-.713,1.4l-.342.232-.136-.384a8.389,8.389,0,0,0-7.712-5.26,8.269,8.269,0,0,0-7.818,5.535l-.068.191h-3.886l.014-14.954,16.061.015a4.641,4.641,0,0,1,4.349,3.1l.231.629a.314.314,0,0,0-.109-.013h-3.981a1.135,1.135,0,1,0,0,2.27h3.981a.457.457,0,0,0,.137-.014Z" transform="translate(-373.568 -39.75)" fill="#d71920"/>
      <g id="Grupo_4254" data-name="Grupo 4254">
        <path id="Trazado_150" data-name="Trazado 150" d="M427.383,63.612l11.766.01a1.745,1.745,0,0,1,0,3.489L427.38,67.1Z" transform="translate(-373.568 -39.75)" fill="#e3acb8"/>
        <path id="Trazado_167" data-name="Trazado 167" d="M448.029,94.03a1.785,1.785,0,0,1-.713,1.4l-.342.232-.136-.384a8.389,8.389,0,0,0-7.712-5.26,8.269,8.269,0,0,0-7.818,5.535l-.068.191h-3.886l.014-14.954,16.061.015a4.641,4.641,0,0,1,4.349,3.1l.231.629a.314.314,0,0,0-.109-.013h-3.981a1.135,1.135,0,1,0,0,2.27H447.9a.457.457,0,0,0,.137-.014Z" transform="translate(-373.568 -39.75)" fill="#e3acb8"/>
      </g>
    </g>
  </g>
</svg>
