<svg xmlns="http://www.w3.org/2000/svg" xmlns:xlink="http://www.w3.org/1999/xlink" width="80" height="80" viewBox="0 0 80 80">
  <defs>
    <clipPath id="clip-sinergia-rojo">
      <rect width="80" height="80"/>
    </clipPath>
  </defs>
  <g id="sinergia-rojo" clip-path="url(#clip-sinergia-rojo)">
    <g id="Grupo_203" data-name="Grupo 203" transform="translate(-236.936 -2436.88)">
      <path id="Trazado_160" data-name="Trazado 160" d="M148.363,100.858a6.848,6.848,0,1,1-6.847-6.848,6.848,6.848,0,0,1,6.847,6.848" transform="translate(116.572 2401.031)" fill="#e3acb8"/>
      <path id="Trazado_161" data-name="Trazado 161" d="M168.064,47.635a6.848,6.848,0,1,1-6.847-6.847,6.847,6.847,0,0,1,6.847,6.847" transform="translate(115.493 2403.945)" fill="#e3acb8"/>
      <path id="Trazado_162" data-name="Trazado 162" d="M141.536,65.959a6.848,6.848,0,1,1-6.848-6.847,6.848,6.848,0,0,1,6.848,6.847" transform="translate(116.945 2402.942)" fill="#e3acb8"/>
      <path id="Trazado_163" data-name="Trazado 163" d="M194.618,65.959a6.847,6.847,0,1,1-6.847-6.847,6.847,6.847,0,0,1,6.847,6.847" transform="translate(114.039 2402.942)" fill="#e3acb8"/>
      <path id="Trazado_164" data-name="Trazado 164" d="M187.8,100.858a6.848,6.848,0,1,1-6.848-6.848,6.848,6.848,0,0,1,6.848,6.848" transform="translate(114.412 2401.031)" fill="#e3acb8"/>
      <path id="Trazado_165" data-name="Trazado 165" d="M164.794,77.2a.757.757,0,0,0-.441-.155h-1.6a.1.1,0,0,1-.088-.1.323.323,0,0,0,.006-.036L164,72.464a1.141,1.141,0,0,0-.029-.752.882.882,0,0,0-.466-.506.65.65,0,0,0-.277-.062h-.006l-2.735.008a.847.847,0,0,0-.778.652l-2.357,7.847a1.055,1.055,0,0,0,.507,1.265.762.762,0,0,0,.277.056h1.9l-1.45,4.8a.988.988,0,0,0,.024.625.76.76,0,0,0,.389.423.689.689,0,0,0,.23.048h1a.663.663,0,0,0,.572-.379l2.409-4.5c0-.006,0-.006.007-.013l1.821-3.414a1.1,1.1,0,0,0-.253-1.362" transform="translate(115.332 2402.283)" fill="#d61922"/>
      <path id="Trazado_166" data-name="Trazado 166" d="M184.81,72.694a7.852,7.852,0,1,0-7.716-6.757l-6,4.046a13.36,13.36,0,0,0-10.575-6.577V55.331a7.83,7.83,0,1,0-1.891-.042v8.117a13.375,13.375,0,0,0-10.821,6.987l-5.486-4.287a7.778,7.778,0,1,0-.572,1.953l5.273,4.118a13.245,13.245,0,0,0,.825,10.945l-5.016,7.164.031.021a7.8,7.8,0,1,0,1.8.664l4.308-6.153a13.315,13.315,0,0,0,21.2.017l4.385,6.262a7.712,7.712,0,1,0,1.519-.657l.22-.154-5-7.146a13.3,13.3,0,0,0,.657-11.452l5.66-3.818a7.8,7.8,0,0,0,7.2,4.823M134.633,70.8a5.9,5.9,0,1,1,5.9-5.9,5.909,5.909,0,0,1-5.9,5.9M146.989,97.89a5.9,5.9,0,1,1-5.9-5.9,5.909,5.909,0,0,1,5.9,5.9m37.279,0a5.9,5.9,0,1,1-5.9-5.9,5.909,5.909,0,0,1,5.9,5.9M153.807,47.581a5.9,5.9,0,1,1,5.9,5.9,5.909,5.909,0,0,1-5.9-5.9m5.769,40.426A11.284,11.284,0,1,1,170.86,76.722a11.3,11.3,0,0,1-11.283,11.284M184.81,59a5.9,5.9,0,1,1-5.9,5.9,5.909,5.909,0,0,1,5.9-5.9" transform="translate(117 2404)" fill="#d61922"/>
    </g>
  </g>
</svg>
