<svg id="sustentabilidad" xmlns="http://www.w3.org/2000/svg" xmlns:xlink="http://www.w3.org/1999/xlink" width="80" height="80" viewBox="0 0 80 80">
  <defs>
    <clipPath id="clip-path">
      <rect id="Rectángulo_2313" data-name="Rectángulo 2313" width="80" height="80"/>
    </clipPath>
  </defs>
  <g id="sustentabilidad-2" data-name="sustentabilidad" clip-path="url(#clip-path)">
    <g id="Grupo_4187" data-name="Grupo 4187">
      <path id="Trazado_620" data-name="Trazado 620" d="M297.406,1436.46l-.028-.009-.3,1.6-5.983-9.986v-.12l1.5-9.911a1.374,1.374,0,0,0-.175-.9.945.945,0,0,0-.617-.469.86.86,0,0,0-.738.184,1.225,1.225,0,0,0-.4.769l-1.152,7.752-7.891-13.153a1.051,1.051,0,0,0-.781-.534.728.728,0,0,0-.341.06,1.23,1.23,0,0,0-.672.917,1.357,1.357,0,0,0,.175.885l7.8,13.058-6.565-1.344a.831.831,0,0,0-.728.192,1.248,1.248,0,0,0-.434.858,1.326,1.326,0,0,0,.3.913,1.372,1.372,0,0,0,.525.361l8.529,1.743.064.12,5.941,9.911-1.384-.222c-4.959-.8-13.95-3.245-18.382-10.62-5.467-9.1-2.351-23.361-1.678-26.136l.139-.562.516.046c3.485.314,15.266,2.016,20.547,10.8C299.629,1420.02,298.476,1430.73,297.406,1436.46Z" transform="translate(-255.447 -1370.944)" fill="#e3acb8"/>
      <g id="Grupo_4182" data-name="Grupo 4182">
        <g id="Grupo_4251" data-name="Grupo 4251">
          <path id="Trazado_612" data-name="Trazado 612" d="M320.562,1389.59a57.971,57.971,0,0,0-1.807-10.49.984.984,0,0,0-.96-.8,37.212,37.212,0,0,0-9.035,1.669,24.673,24.673,0,0,0-14.345,10.342A27.279,27.279,0,0,0,290.922,1403l-.056,1.134-.864-.563a30.084,30.084,0,0,0-7.633-3.484,37.53,37.53,0,0,0-9.035-1.586,1.029,1.029,0,0,0-.95.783,55.562,55.562,0,0,0-1.807,10.436c-.636,7.827.535,14.474,3.384,19.222a24.561,24.561,0,0,0,14.354,10.336,37.763,37.763,0,0,0,9.035,1.669,1.034,1.034,0,0,0,.95-.756,57.474,57.474,0,0,0,1.818-10.528,45.291,45.291,0,0,0-.12-9.09l-.072-.655.576-.138c5.384-1.248,12.649-4.157,16.707-10.906a25.54,25.54,0,0,0,3.169-9.643,44.425,44.425,0,0,0,.184-9.641Zm-23.236,45.929-.028-.009-.3,1.6-5.983-9.986V1427l1.5-9.911a1.374,1.374,0,0,0-.175-.9.945.945,0,0,0-.617-.469.86.86,0,0,0-.738.184,1.225,1.225,0,0,0-.4.769l-1.152,7.752-7.891-13.153a1.052,1.052,0,0,0-.781-.534.727.727,0,0,0-.341.06,1.229,1.229,0,0,0-.672.917,1.357,1.357,0,0,0,.175.885l7.8,13.058-6.565-1.344a.832.832,0,0,0-.728.192,1.246,1.246,0,0,0-.434.858,1.326,1.326,0,0,0,.3.913,1.372,1.372,0,0,0,.525.361l8.529,1.743.064.12,5.941,9.911-1.384-.222c-4.959-.8-13.95-3.245-18.382-10.62-5.467-9.1-2.351-23.361-1.678-26.136l.139-.562.516.046a38.35,38.35,0,0,1,7.214,1.406c4.416,1.285,10.1,4.008,13.333,9.39,4.434,7.357,3.281,18.071,2.211,23.793Zm18.26-28.263h-.017c-3.66,6.331-10.455,9.032-15.507,10.221l-.576.13-.156-.627a25.3,25.3,0,0,0-.811-2.737l-.12-.342.072-.137,3.283-5.061h.69l8.66-1.78a1.2,1.2,0,0,0,.832-1.39,1.011,1.011,0,0,0-.36-.741,1.054,1.054,0,0,0-.757-.255.151.151,0,0,0-.065.01l-6.771,1.391,8.054-13.384a1.352,1.352,0,0,0-.255-1.693.855.855,0,0,0-.737-.18.989.989,0,0,0-.663.48l-8.08,13.414-1.19-7.891a1.063,1.063,0,0,0-1.125-.995h-.011l-.058.01a.967.967,0,0,0-.642.51,1.334,1.334,0,0,0-.17.909l1.552,10.225-.028.037-2.784,4.626-.719-1.2a20.749,20.749,0,0,0-3.727-4.55l-.228-.22v-.651s.576-9.535,2.855-13.745c5.07-8.417,16.069-10.437,20.558-10.907l.517-.055.138.571c.93,3.937,3.577,17.481-1.661,26.249Z" transform="translate(-255.363 -1370.007)" fill="#d71920"/>
          <path id="Trazado_612_-_Contorno" data-name="Trazado 612 - Contorno" d="M317.793,1378.21h0a1.088,1.088,0,0,1,1.057.872,58.222,58.222,0,0,1,1.809,10.5,44.6,44.6,0,0,1-.187,9.663,25.5,25.5,0,0,1-3.181,9.679c-4.08,6.787-11.372,9.7-16.771,10.954l-.49.118.062.567a45.481,45.481,0,0,1,.12,9.109,57.72,57.72,0,0,1-1.821,10.545,1.132,1.132,0,0,1-1.042.829h-.011a37.913,37.913,0,0,1-9.059-1.673,24.61,24.61,0,0,1-14.4-10.373c-2.862-4.77-4.037-11.437-3.4-19.285a55.794,55.794,0,0,1,1.81-10.454,1.135,1.135,0,0,1,1.041-.857h.01a37.66,37.66,0,0,1,9.059,1.59,30.179,30.179,0,0,1,7.658,3.5l.719.468.047-.96a27.477,27.477,0,0,1,3.507-12.73v-.006a24.733,24.733,0,0,1,14.4-10.384,37.345,37.345,0,0,1,9.055-1.672Zm-20.443,62.64a.932.932,0,0,0,.853-.682,57.521,57.521,0,0,0,1.814-10.509,45.285,45.285,0,0,0-.12-9.071l-.082-.743.662-.159c5.362-1.243,12.6-4.136,16.644-10.861a25.3,25.3,0,0,0,3.155-9.6,44.4,44.4,0,0,0,.186-9.622,58.028,58.028,0,0,0-1.8-10.473v-.007a.888.888,0,0,0-.859-.714,37.169,37.169,0,0,0-9.007,1.664,24.537,24.537,0,0,0-14.289,10.3,27.279,27.279,0,0,0-3.479,12.636l-.064,1.31-1.01-.658a29.985,29.985,0,0,0-7.607-3.472,37.465,37.465,0,0,0-9.007-1.582.935.935,0,0,0-.852.707,55.6,55.6,0,0,0-1.8,10.42c-.634,7.806.531,14.433,3.37,19.163a24.41,24.41,0,0,0,14.294,10.291,37.723,37.723,0,0,0,9,1.662Zm19.827-60.28.159.656c.935,3.955,3.576,17.538-1.672,26.323l-.128-.038a19.539,19.539,0,0,1-7.148,6.871,30.468,30.468,0,0,1-8.3,3.193l-.672.151-.18-.722a25.284,25.284,0,0,0-.808-2.728l-.135-.384.1-.184,3.312-5.107h.735l8.645-1.777a1.107,1.107,0,0,0,.759-1.273v-.017a.912.912,0,0,0-.324-.668.953.953,0,0,0-.686-.232h-.014a.055.055,0,0,0-.021,0h-.016l-6.994,1.437,8.171-13.579a1.255,1.255,0,0,0-.237-1.567.761.761,0,0,0-.648-.156.889.889,0,0,0-.6.432l-8.224,13.654-1.232-8.174a.963.963,0,0,0-1.019-.9h-.008l-.046.008a.865.865,0,0,0-.573.457v.007a1.237,1.237,0,0,0-.157.841l1.558,10.268-.05.067-2.868,4.765-.8-1.344a20.64,20.64,0,0,0-3.709-4.528l-.26-.251v-.7c.006-.1.6-9.606,2.867-13.787,5.1-8.475,16.131-10.487,20.635-10.959Zm-1.516,26.588c4.983-8.727,2.4-21.992,1.48-25.885l-.118-.486-.429.046c-4.474.469-15.427,2.466-20.483,10.859-2.226,4.113-2.828,13.485-2.841,13.7v.6l.2.19a20.838,20.838,0,0,1,3.743,4.57l.634,1.059,2.707-4.5-1.545-10.183a1.435,1.435,0,0,1,.181-.972,1.065,1.065,0,0,1,.707-.559h0l.083-.012a1.164,1.164,0,0,1,1.228,1.084l1.148,7.612,7.936-13.177a1.087,1.087,0,0,1,.728-.526.954.954,0,0,1,.822.2,1.457,1.457,0,0,1,.277,1.82l-7.936,13.189,6.541-1.344a.273.273,0,0,1,.092-.013,1.157,1.157,0,0,1,.822.28,1.111,1.111,0,0,1,.394.8,1.292,1.292,0,0,1-.9,1.5h-.008l-8.68,1.782h-.636l-3.251,5.012-.05.095.106.3a25.475,25.475,0,0,1,.814,2.748l.133.531.481-.108c5.048-1.188,11.826-3.917,15.443-10.173l.029-.05Zm-41.689-6.38.6.054a38.452,38.452,0,0,1,7.234,1.41,27.61,27.61,0,0,1,7.134,3.17,19.2,19.2,0,0,1,6.256,6.264c4.416,7.328,3.31,18,2.24,23.775h0l-.016.087H297.4l-.353,1.859-6.132-10.235V1427l1.5-9.911a1.28,1.28,0,0,0-.162-.829.845.845,0,0,0-.553-.423.761.761,0,0,0-.651.163,1.124,1.124,0,0,0-.371.7l-1.194,8.031-8.035-13.392a.958.958,0,0,0-.7-.486.62.62,0,0,0-.291.052,1.128,1.128,0,0,0-.614.84,1.262,1.262,0,0,0,.162.819l7.915,13.253-.222-.045-6.565-1.344a.731.731,0,0,0-.641.168,1.141,1.141,0,0,0-.4.79,1.222,1.222,0,0,0,.282.842,1.276,1.276,0,0,0,.477.329l8.567,1.75.086.161,6.049,10.091-1.6-.256c-4.981-.805-14-3.262-18.452-10.667a22.026,22.026,0,0,1-2.676-7.567,38.326,38.326,0,0,1-.48-7.928,56.062,56.062,0,0,1,1.466-10.717Zm23.273,34.613c1.063-5.749,2.157-16.35-2.219-23.612-3.3-5.492-9.042-8.113-13.275-9.345a38.249,38.249,0,0,0-7.2-1.4l-.43-.038-.119.479c-.672,2.77-3.749,17.046,1.667,26.061,4.409,7.336,13.366,9.773,18.312,10.573l1.171.188-5.831-9.727-.044-.083-8.5-1.738a1.48,1.48,0,0,1-.563-.388,1.425,1.425,0,0,1-.33-.985,1.34,1.34,0,0,1,.469-.929.932.932,0,0,1,.814-.214l6.341,1.3-7.683-12.864a1.464,1.464,0,0,1-.188-.951,1.33,1.33,0,0,1,.727-.992.82.82,0,0,1,.391-.07h.007a1.155,1.155,0,0,1,.855.585l7.746,12.911,1.111-7.476a1.324,1.324,0,0,1,.438-.829.961.961,0,0,1,.826-.207,1.045,1.045,0,0,1,.684.52,1.478,1.478,0,0,1,.186.957l-1.5,9.9v.085l5.833,9.737.276-1.456Z" transform="translate(-255.363 -1370.007)" fill="#d71920"/>
        </g>
      </g>
    </g>
  </g>
</svg>
