<svg id="ubicacion" xmlns="http://www.w3.org/2000/svg" xmlns:xlink="http://www.w3.org/1999/xlink" width="80" height="80" viewBox="0 0 80 80">
  <defs>
    <clipPath id="clip-path">
      <rect id="Rectángulo_2314" data-name="Rectángulo 2314" width="80" height="80"/>
    </clipPath>
  </defs>
  <g id="ubicacion-2" data-name="ubicacion" clip-path="url(#clip-path)">
    <g id="Grupo_4184" data-name="Grupo 4184">
      <g id="Grupo_1428" data-name="Grupo 1428" transform="translate(-0.121 -0.752)">
        <path id="Trazado_1468" data-name="Trazado 1468" d="M40,23.172a7.4,7.4,0,1,0,7.39,7.39A7.4,7.4,0,0,0,40,23.172Zm0,12.54a5.145,5.145,0,1,1,5.14-5.15A5.145,5.145,0,0,1,40,35.712Z" fill="#d71920"/>
      </g>
      <path id="Trazado_1470" data-name="Trazado 1470" d="M39.982,15a15.577,15.577,0,0,0-15.56,15.56c0,.22.01.46.02.68,0,.15.01.25.01.35l.01.12c.27,4.24,2.44,8,4.8,11.39.53.77,1.08,1.52,1.61,2.25.07.09.14.19.21.28l.13.19a113.524,113.524,0,0,0,8.77,9.9,113.518,113.518,0,0,0,8.77-9.9c.11-.15.23-.31.34-.47.53-.72,1.07-1.47,1.61-2.25,2.29-3.32,4.49-7.13,4.81-11.19l.02-.7c.01-.22.02-.44.02-.65A15.58,15.58,0,0,0,39.982,15ZM40,37.962a7.4,7.4,0,1,1,7.39-7.4,7.4,7.4,0,0,1-7.39,7.4Z" transform="translate(-0.121 -0.752)" fill="#e3acb8"/>
      <g id="Grupo_4183" data-name="Grupo 4183">
        <path id="Trazado_1469" data-name="Trazado 1469" d="M57.792,30.172a17.812,17.812,0,1,0-35.621.39c0,.25.011.52.021.73a3.383,3.383,0,0,0,.02.39,2.527,2.527,0,0,0,.01.27c.27,4.15,2.19,7.89,4.33,11.15.51.78,1.03,1.53,1.54,2.25.4.55.79,1.09,1.17,1.61l.13.18a124.015,124.015,0,0,0,9.79,10.97l.35.33s.28.3.46.3.47-.3.47-.3l.33-.33a126.163,126.163,0,0,0,9.78-10.97c.42-.57.85-1.17,1.3-1.79.51-.71,1.03-1.46,1.53-2.25,2.23-3.42,4.27-7.45,4.4-11.78l.03-1.15Zm-2.26,1.04-.02.7c-.32,4.06-2.52,7.87-4.81,11.19-.54.78-1.08,1.53-1.61,2.25-.11.16-.23.32-.34.47a113.523,113.523,0,0,1-8.77,9.9,113.52,113.52,0,0,1-8.77-9.9l-.13-.19c-.07-.09-.14-.19-.21-.28-.53-.73-1.08-1.48-1.61-2.25-2.36-3.39-4.53-7.15-4.8-11.39l-.01-.12c0-.1-.01-.2-.01-.35-.01-.22-.02-.46-.02-.68a15.565,15.565,0,1,1,31.13,0c0,.21-.01.43-.02.65Z" transform="translate(-0.121 -0.752)" fill="#d71920"/>
        <path id="Trazado_1469_-_Contorno" data-name="Trazado 1469 - Contorno" d="M39.982,12.627a17.962,17.962,0,0,1,17.932,17.42h.046l-.033,1.278c-.143,4.76-2.591,9.04-4.42,11.845-.436.689-.924,1.406-1.533,2.255l-.429.592c-.3.418-.587.812-.872,1.2A125.964,125.964,0,0,1,40.88,58.2l-.33.33c-.053.055-.337.337-.558.337s-.489-.274-.549-.337L39.1,58.2a124.627,124.627,0,0,1-9.805-10.987l-.13-.18c-.236-.323-.476-.654-.72-.99l-.45-.62c-.612-.865-1.1-1.581-1.544-2.255-1.725-2.628-4.053-6.65-4.35-11.21a2.555,2.555,0,0,1-.01-.27,3.58,3.58,0,0,1-.02-.4c-.013-.279-.02-.526-.02-.733A17.955,17.955,0,0,1,39.982,12.627ZM57.7,30.3h-.03v-.122a17.687,17.687,0,1,0-35.371.387c0,.2.008.447.021.724v.006a3.321,3.321,0,0,0,.019.372v.018a2.418,2.418,0,0,0,.009.258c.293,4.506,2.6,8.489,4.31,11.094.439.672.928,1.386,1.538,2.246l.449.619q.366.5.72.99l.13.181A124.284,124.284,0,0,0,39.27,58.026l.355.335a.859.859,0,0,0,.369.26.9.9,0,0,0,.38-.262l.331-.331a125.7,125.7,0,0,0,9.767-10.955c.285-.387.57-.781.871-1.2l.428-.592c.606-.844,1.091-1.557,1.526-2.243,1.814-2.781,4.24-7.02,4.381-11.717ZM39.982,14.877A15.708,15.708,0,0,1,55.677,30.562c0,.213-.01.438-.02.656l-.02.7c-.335,4.249-2.758,8.245-4.832,11.251-.493.712-1.02,1.449-1.612,2.253-.086.125-.18.252-.27.375l-.07.1a114.637,114.637,0,0,1-8.781,9.914l-.089.091-.089-.091A114.643,114.643,0,0,1,31.111,45.9l-.13-.19a1.7,1.7,0,0,1-.1-.14c-.03-.048-.069-.093-.1-.137l-.22-.3c-.46-.632-.935-1.286-1.394-1.953-2.227-3.2-4.542-7.062-4.822-11.453l-.01-.128v-.134c0-.048-.006-.129-.006-.213-.01-.214-.02-.46-.02-.683A15.7,15.7,0,0,1,39.982,14.877ZM55.387,31.905l.02-.7c.01-.217.02-.439.02-.646a15.44,15.44,0,1,0-30.88,0c0,.219.01.463.02.674v.006c0,.08,0,.146.006.2a1.084,1.084,0,0,1,0,.14l.01.115c.276,4.332,2.57,8.157,4.778,11.329.457.664.932,1.317,1.39,1.948l.218.3c.033.043.069.091.1.139s.069.093.1.137v.006l.13.19a113.349,113.349,0,0,0,8.667,9.792,113.331,113.331,0,0,0,8.669-9.795l.07-.1c.089-.121.182-.247.268-.372.593-.806,1.119-1.541,1.61-2.25C52.654,40.051,55.056,36.094,55.387,31.905Z" transform="translate(-0.121 -0.752)" fill="#d71920"/>
        <g id="Grupo_1430" data-name="Grupo 1430" transform="translate(-0.121 -0.752)">
          <path id="Trazado_1471" data-name="Trazado 1471" d="M68.442,66.452a3.436,3.436,0,0,1-2.62,1.87,4.4,4.4,0,0,1-.52.03H14.692a4.532,4.532,0,0,1-.519-.03,3.453,3.453,0,0,1-2.621-1.87,3.814,3.814,0,0,1-.02-3.48L20,46.412c1.33-2.25,2.86-3.31,4.69-3.31h1.86c.51.78,1.03,1.53,1.54,2.25h-3.4c-.67,0-1.59.25-2.73,2.15l-8.42,16.49a1.547,1.547,0,0,0,.01,1.42,1.221,1.221,0,0,0,.93.68,1.478,1.478,0,0,0,.21.01H65.3a1.548,1.548,0,0,0,.22-.01,1.24,1.24,0,0,0,.93-.68,1.578,1.578,0,0,0,.01-1.42L58,47.432c-1.11-1.83-2.03-2.08-2.7-2.08H51.87c.51-.71,1.03-1.46,1.53-2.25h1.9c2.43,0,3.83,1.85,4.66,3.24l8.5,16.63a3.784,3.784,0,0,1-.018,3.48Z" fill="#d71920"/>
          <path id="Trazado_1471_-_Contorno" data-name="Trazado 1471 - Contorno" d="M65.3,68.477H14.692a4.655,4.655,0,0,1-.535-.031,3.572,3.572,0,0,1-2.716-1.937,3.941,3.941,0,0,1-.021-3.594l8.474-16.567c1.341-2.269,2.91-3.371,4.8-3.371H26.62l.037.057c.439.672.928,1.385,1.537,2.246l.14.2H24.692c-.637,0-1.511.237-2.621,2.086L13.653,64.049a1.423,1.423,0,0,0,.009,1.305,1.1,1.1,0,0,0,.835.614,1.373,1.373,0,0,0,.194.009H65.3a1.457,1.457,0,0,0,.2-.009,1.094,1.094,0,0,0,.838-.616,1.453,1.453,0,0,0,.007-1.305L57.893,47.493c-1.085-1.787-1.954-2.016-2.591-2.016H51.628l.142-.2c.607-.844,1.091-1.557,1.526-2.244l.037-.058H55.3c2.506,0,3.921,1.884,4.767,3.3v.007l8.5,16.63a3.911,3.911,0,0,1-.021,3.6,3.567,3.567,0,0,1-2.714,1.936,4.533,4.533,0,0,1-.532.034Zm-45.19-22L11.643,63.029a3.691,3.691,0,0,0,.019,3.365,3.325,3.325,0,0,0,2.526,1.8,4.4,4.4,0,0,0,.5.029H65.3a4.28,4.28,0,0,0,.505-.029,3.319,3.319,0,0,0,2.524-1.8,3.661,3.661,0,0,0,.02-3.365L59.853,46.4c-.815-1.364-2.173-3.176-4.551-3.176H53.471c-.393.618-.828,1.26-1.356,2H55.3c.7,0,1.656.243,2.807,2.14v.008l8.46,16.56a1.706,1.706,0,0,1-.011,1.535,1.349,1.349,0,0,1-1.025.746,1.659,1.659,0,0,1-.236.011h-50.6a1.582,1.582,0,0,1-.228-.011,1.345,1.345,0,0,1-1.024-.748,1.673,1.673,0,0,1-.009-1.533l8.424-16.5c1.176-1.959,2.134-2.211,2.837-2.211h3.159c-.531-.753-.969-1.394-1.366-2H24.692c-1.792.006-3.292,1.068-4.58,3.251Z" fill="#d71920"/>
        </g>
      </g>
    </g>
  </g>
</svg>
